<?xml version="1.0" encoding="UTF-8" standalone="no"?> <svg width="64" height="64" viewBox="0 0 64 64" fill="none" xmlns="http://www.w3.org/2000/svg">
<path d="M43 11H27V13H43V11Z" fill="black"/>
<path d="M47 11H45V13H47V11Z" fill="black"/>
<path d="M58 2H42V4H58V2Z" fill="black"/>
<path d="M62 2H60V4H62V2Z" fill="black"/>
<path d="M21 60H5V62H21V60Z" fill="black"/>
<path d="M25 60H23V62H25V60Z" fill="black"/>
<path d="M31 54H15V56H31V54Z" fill="black"/>
<path d="M35 54H33V56H35V54Z" fill="black"/>
<path d="M57 47H51V49H57V47Z" fill="black"/>
<path d="M57.774 35.36L61.68 31.733C61.981 31.453 62.08 31.017 61.93 30.634C61.78 30.252 61.411 30 61 30H60.142L61.991 16.132C62.029 15.846 61.942 15.558 61.752 15.341C61.562 15.124 61.288 15 61 15H57C56.666 15 56.354 15.167 56.168 15.445L46.465 30H35.699L39.874 22.486C40.046 22.176 40.041 21.798 39.862 21.493C39.682 21.188 39.354 21 39 21H35C34.784 21 34.573 21.07 34.4 21.2L22.667 30H15.487C9.382 30 3.982 33.892 2.051 39.684C2.017 39.786 2 39.893 2 40C2 41.654 3.346 43 5 43H25.697L34.445 48.832C34.609 48.941 34.803 49 35 49H39C39.395 49 39.753 48.768 39.914 48.407C40.075 48.046 40.008 47.625 39.744 47.331L35.809 42.958C41.118 42.755 46.391 41.423 51.142 39.047L53.495 37.871L60.607 40.919C60.734 40.974 60.868 41 61 41C61.324 41 61.638 40.843 61.829 40.561C62.098 40.164 62.047 39.632 61.708 39.293L57.774 35.36ZM13 36H7L9 34H13V36ZM18 36H16V34H18V36ZM22 36H20V34H22V36ZM26 36H24V34H26V36ZM30 36H28V34H30V36ZM34 36H32V34H34V36Z" fill="black"/>
</svg>
